<svg width="20" height="20" viewBox="0 0 20 20" fill="none" xmlns="http://www.w3.org/2000/svg">
<g id="Handbag">
<path id="Vector" d="M16.3156 5.625H3.68435C3.53054 5.625 3.38214 5.68172 3.26753 5.7843C3.15292 5.88687 3.08016 6.02811 3.06318 6.18098L1.95206 16.181C1.94236 16.2683 1.95119 16.3568 1.97798 16.4405C2.00477 16.5242 2.04892 16.6013 2.10754 16.6668C2.16616 16.7323 2.23794 16.7847 2.31818 16.8206C2.39843 16.8565 2.48534 16.875 2.57324 16.875H17.4267C17.5146 16.875 17.6015 16.8565 17.6817 16.8206C17.762 16.7847 17.8337 16.7323 17.8924 16.6668C17.951 16.6013 17.9951 16.5242 18.0219 16.4405C18.0487 16.3568 18.0575 16.2683 18.0478 16.181L16.9367 6.18098C16.9197 6.02811 16.847 5.88687 16.7324 5.7843C16.6178 5.68172 16.4694 5.625 16.3156 5.625Z" stroke="white" stroke-width="1.875" stroke-linecap="round" stroke-linejoin="round"/>
<path id="Vector_2" d="M6.875 8.125V5.625C6.875 4.7962 7.20424 4.00134 7.79029 3.41529C8.37634 2.82924 9.1712 2.5 10 2.5C10.8288 2.5 11.6237 2.82924 12.2097 3.41529C12.7958 4.00134 13.125 4.7962 13.125 5.625V8.125" stroke="white" stroke-width="1.875" stroke-linecap="round" stroke-linejoin="round"/>
</g>
</svg>
