<svg width="14" height="10" viewBox="0 0 14 10" fill="none" xmlns="http://www.w3.org/2000/svg">
<g id="CaretRight">
<path id="Vector" d="M9.46133 4.77902L5.29466 1.65402C5.23639 1.61032 5.16214 1.58056 5.08132 1.5685C5.00049 1.55645 4.91672 1.56264 4.84058 1.58629C4.76445 1.60995 4.69938 1.65 4.65359 1.70139C4.60781 1.75278 4.58337 1.8132 4.58337 1.875V8.12501C4.58338 8.18681 4.60781 8.24723 4.6536 8.29862C4.69938 8.35001 4.76445 8.39006 4.84058 8.41371C4.91672 8.43737 5.00049 8.44356 5.08132 8.4315C5.16214 8.41945 5.23639 8.38969 5.29466 8.34599L9.46133 5.22099C9.50002 5.19197 9.53072 5.15752 9.55166 5.1196C9.5726 5.08169 9.58338 5.04105 9.58338 5.00001C9.58338 4.95896 9.5726 4.91832 9.55166 4.88041C9.53072 4.84249 9.50002 4.80804 9.46133 4.77902Z" fill="#F1433A"/>
</g>
</svg>
