<svg width="30" height="30" viewBox="0 0 30 30" fill="none" xmlns="http://www.w3.org/2000/svg">
<g id="CrownSimple">
<path id="Vector" d="M27.9759 8.61743C27.7077 8.39352 27.3819 8.24953 27.0358 8.20187C26.6896 8.15422 26.337 8.20483 26.0183 8.34792L20.0905 10.9826L16.639 4.76992C16.4767 4.4776 16.2391 4.23403 15.9509 4.06444C15.6627 3.89485 15.3344 3.80542 15 3.80542C14.6656 3.80542 14.3373 3.89485 14.0491 4.06444C13.761 4.23403 13.5234 4.4776 13.361 4.76992L9.90946 10.9825L3.98074 8.34746C3.66175 8.20573 3.30952 8.15586 2.96372 8.20345C2.61793 8.25105 2.29228 8.39423 2.02344 8.61687C1.7546 8.83951 1.55325 9.13277 1.44205 9.46365C1.33085 9.79452 1.31422 10.1499 1.39403 10.4897L4.3759 23.185C4.43264 23.4307 4.53888 23.6624 4.68815 23.8657C4.83741 24.069 5.02656 24.2398 5.24405 24.3676C5.46267 24.4963 5.70492 24.5797 5.95642 24.613C6.20792 24.6462 6.46354 24.6286 6.70809 24.5611C12.1327 23.0635 17.8616 23.063 23.2865 24.5595C23.5309 24.6269 23.7864 24.6445 24.0378 24.6113C24.2892 24.578 24.5313 24.4946 24.7498 24.366C24.9672 24.2383 25.1563 24.0677 25.3056 23.8645C25.4548 23.6613 25.5611 23.4299 25.618 23.1843L28.605 10.4907C28.6863 10.1509 28.6704 9.79507 28.5591 9.46384C28.4479 9.13261 28.2458 8.83932 27.9759 8.61743Z" fill="url(#paint0_linear_18_636)"/>
</g>
<defs>
<linearGradient id="paint0_linear_18_636" x1="-2.69228" y1="-4.00354" x2="124.677" y2="-4.00354" gradientUnits="userSpaceOnUse">
<stop stop-color="#E5453D"/>
<stop offset="1" stop-color="#FF7A2E"/>
</linearGradient>
</defs>
</svg>
