<svg width="256" height="256" viewBox="0 0 256 256" fill="none" xmlns="http://www.w3.org/2000/svg">
<g id="Desktop">
<path id="Vector" d="M207.884 40.5405H48.5093C42.1712 40.5478 36.0947 43.0688 31.613 47.5505C27.1313 52.0322 24.6103 58.1087 24.603 64.4468V176.009C24.6103 182.347 27.1313 188.424 31.613 192.906C36.0947 197.387 42.1712 199.908 48.5093 199.916H120.228V215.853H96.3218C94.2083 215.853 92.1814 216.693 90.687 218.187C89.1926 219.681 88.353 221.708 88.353 223.822C88.353 225.935 89.1926 227.962 90.687 229.457C92.1814 230.951 94.2083 231.791 96.3218 231.791H160.072C162.185 231.791 164.212 230.951 165.707 229.457C167.201 227.962 168.041 225.935 168.041 223.822C168.041 221.708 167.201 219.681 165.707 218.187C164.212 216.693 162.185 215.853 160.072 215.853H136.166V199.916H207.884C214.222 199.908 220.299 197.387 224.781 192.906C229.262 188.424 231.783 182.347 231.791 176.009V64.4468C231.783 58.1087 229.262 52.0322 224.781 47.5505C220.299 43.0688 214.222 40.5478 207.884 40.5405ZM207.884 183.978H48.5093C46.3966 183.976 44.3711 183.135 42.8772 181.641C41.3833 180.147 40.5429 178.122 40.5405 176.009V160.072H215.853V176.009C215.851 178.122 215.01 180.147 213.516 181.641C212.022 183.135 209.997 183.976 207.884 183.978Z" fill="#5F5555" fill-opacity="0.16"/>
</g>
</svg>
