<svg width="35" height="35" viewBox="0 0 35 35" fill="none" xmlns="http://www.w3.org/2000/svg">
<g id="Group 58">
<rect id="Rectangle 7" width="35" height="35" rx="5" fill="url(#paint0_linear_31_1041)" fill-opacity="0.6"/>
<path id="Vector" d="M18.1219 20.8535L22.4969 15.8535C22.5581 15.7836 22.5997 15.6945 22.6166 15.5975C22.6335 15.5005 22.6248 15.4 22.5917 15.3087C22.5586 15.2173 22.5025 15.1392 22.4306 15.0843C22.3586 15.0293 22.274 15 22.1875 15L13.4375 15C13.351 15 13.2664 15.0293 13.1944 15.0843C13.1225 15.1392 13.0664 15.2173 13.0333 15.3087C13.0002 15.4 12.9915 15.5005 13.0084 15.5975C13.0253 15.6945 13.0669 15.7836 13.1281 15.8535L17.5031 20.8535C17.5437 20.9 17.592 20.9368 17.6451 20.9619C17.6981 20.9871 17.755 21 17.8125 21C17.87 21 17.9268 20.9871 17.9799 20.9619C18.033 20.9368 18.0812 20.9 18.1219 20.8535Z" fill="white"/>
</g>
<defs>
<linearGradient id="paint0_linear_31_1041" x1="-5.17296" y1="-13.125" x2="158.05" y2="-13.125" gradientUnits="userSpaceOnUse">
<stop stop-color="#E5453D"/>
<stop offset="1" stop-color="#FF7A2E"/>
</linearGradient>
</defs>
</svg>
